<svg width="45" height="45" viewBox="0 0 45 45" fill="none" xmlns="http://www.w3.org/2000/svg">
<g clip-path="url(#clip0_4_32)">
<path d="M8.39395 5.77277L8.39393 5.77276C7.52323 5.26953 6.40983 5.56762 5.90658 6.43905L8.39395 5.77277ZM8.39395 5.77277L44.0381 26.3528L44.0382 26.3528C44.9096 26.854 45.209 27.9687 44.7051 28.8387L44.7051 28.8388L39.0925 38.5602L39.1358 38.5852L39.0925 38.5603C38.59 39.4317 37.4767 39.7298 36.6051 39.2272L0.960975 18.6472L0.960966 18.6472C0.0901726 18.1446 -0.208556 17.0313 0.293994 16.1598C0.293999 16.1598 0.294003 16.1598 0.294008 16.1598L5.90658 6.43905L8.39395 5.77277Z" fill="#CCD1D9" stroke="#020B09" stroke-width="0.1"/>
<path d="M0.960915 26.3528L0.960975 26.3527L36.6051 5.7727C37.4766 5.26944 38.59 5.56748 39.0925 6.43895L39.0925 6.43897L44.7052 16.1596L44.7052 16.1597C45.2091 17.031 44.9098 18.1444 44.0382 18.647L44.0613 18.687L44.0382 18.647L8.39395 39.2257L8.39391 39.2258C7.52312 39.7297 6.40983 39.4317 5.90658 38.5602L0.293995 28.8387L0.250694 28.8637L0.29399 28.8387C-0.208555 27.9687 0.0901812 26.8539 0.960915 26.3528Z" fill="#CCD1D9" stroke="#020B09" stroke-width="0.1"/>
<path d="M29.9343 1.91986V1.96986H29.9344V43.0786C29.9344 44.0837 29.1177 44.9004 28.1126 44.9004H16.8873C15.8816 44.9004 15.0669 44.0838 15.0669 43.0786V1.91986C15.0669 0.914062 15.8815 0.099469 16.8873 0.099469H28.1125C29.1176 0.099469 29.9343 0.914124 29.9343 1.91986Z" fill="#E6E9ED" stroke="#020B09" stroke-width="0.1"/>
<path d="M22.4945 5.66208C21.9781 5.66208 21.5586 6.08096 21.5586 6.59732V38.4026C21.5586 38.919 21.9781 39.3379 22.4945 39.3379C23.0108 39.3379 23.429 38.919 23.429 38.4026V6.59723C23.4289 6.08096 23.0107 5.66208 22.4945 5.66208Z" fill="#ED5564"/>
<path d="M24.5324 33.7403C24.5228 33.7389 23.4687 33.5384 22.4518 32.9273C21.2268 32.1898 20.6061 31.1929 20.6061 29.9637C20.6061 29.2661 20.8966 28.8555 21.5585 28.4847V26.4166C21.0339 26.6322 20.5278 26.8821 20.0884 27.2158C19.1909 27.8984 18.7357 28.8226 18.7357 29.9638C18.7357 31.8891 19.7059 33.478 21.542 34.5643C22.8452 35.3307 24.1437 35.571 24.1987 35.5805C24.255 35.5915 24.3112 35.5957 24.3662 35.5957C24.8083 35.5957 25.2025 35.2798 25.2849 34.828C25.3756 34.3197 25.0391 33.835 24.5324 33.7403Z" fill="#DA4453"/>
<path d="M23.4289 13.301C23.4385 13.2996 23.4468 13.2975 23.4563 13.2961C24.4527 13.1169 25.2574 13.1443 25.2629 13.1443C25.7793 13.1649 26.2146 12.7633 26.2352 12.2476C26.2557 11.7305 25.8548 11.2959 25.337 11.2754C25.267 11.2719 24.4746 11.2458 23.4288 11.4058L23.4289 13.301Z" fill="#DA4453"/>
<path d="M25.6736 20.6625C24.8908 20.1461 23.913 19.8804 22.9655 19.6236C20.8774 19.0565 19.6964 18.6493 19.6936 16.8853C19.6909 15.9158 19.9882 15.157 20.5993 14.5658C20.8801 14.2953 21.2104 14.0783 21.5585 13.9018V11.8707C20.7586 12.1591 19.9594 12.5855 19.3056 13.2145C18.3189 14.1655 17.8191 15.4015 17.8218 16.8887C17.8245 18.3438 18.3821 19.4705 19.4773 20.2368C20.3582 20.8541 21.4349 21.146 22.4751 21.4288C24.4926 21.9767 25.3124 22.3193 25.3124 23.5216C25.3124 24.6574 24.7287 25.1641 23.4289 25.7038V27.7129C24.2453 27.4121 25.0707 27.0852 25.7546 26.5456C26.7021 25.7999 27.1828 24.7823 27.1828 23.5216C27.1828 22.2856 26.6747 21.323 25.6736 20.6625Z" fill="#DA4453"/>
</g>
<defs>
<clipPath id="clip0_4_32">
<rect width="45" height="45" fill="white"/>
</clipPath>
</defs>
</svg>
